<svg id="Frame_0" data-name="Frame 0" xmlns="http://www.w3.org/2000/svg" viewBox="0 0 635.14 623.27"><defs><style>.cls-1{fill:#f00001;stroke:#f00001;}.cls-1,.cls-11,.cls-3,.cls-4,.cls-5,.cls-7,.cls-9{stroke-linecap:round;stroke-linejoin:round;}.cls-2{fill:#d60000;}.cls-11,.cls-3,.cls-7,.cls-9{fill:none;}.cls-3{stroke:#d60000;}.cls-4{fill:#ff521a;stroke:#ff521a;}.cls-5{fill:#fff;stroke:#fff;}.cls-6{fill:#006734;}.cls-7{stroke:#006734;}.cls-8{fill:#01cc00;}.cls-9{stroke:#01cc00;}.cls-10{fill:#029834;}.cls-11{stroke:#029834;}</style></defs><title>tomato</title><g id="Layer_6" data-name="Layer 6"><path class="cls-1" d="M822,148.5c18.91,5.47,43.63,15.74,59.85,26.88C897.55,186.16,915.5,204.83,927,220c10.4,13.74,21.64,34.16,27.9,50.22,6.78,17.4,11.89,42.06,14.43,60.57,2.92,21.31,4.25,50.22,2.56,71.67-1.54,19.49-6.1,45.47-12.37,64s-18.67,41.45-28.88,58c-8.73,14.13-21.79,32.22-33.15,44.34-18.28,19.51-45.68,43-68.37,57.17-23.94,14.91-58.76,30.65-86,38-23.75,6.42-56.86,9.71-81.46,9.5-28.26-.23-66.14-5.07-93.33-12.78-24.59-7-56-21.26-78-34.25-20.87-12.32-46.78-32.18-64.22-49-14.87-14.34-33.3-35.3-43.94-53-13.22-22-24.4-54.85-32-79.38-4-13-8.59-30.67-10.24-44.17-2-16.59-1.54-39-.64-55.69a319.06,319.06,0,0,1,4.42-38.25c2.61-13.68,7.2-31.78,12.14-44.8a226.34,226.34,0,0,1,18.42-37.27,228.65,228.65,0,0,1,27.64-34.33,160.33,160.33,0,0,1,23.25-19.21,191.8,191.8,0,0,1,35-17.35c10.35-3.79,24.77-7.1,35.65-8.83,65.79-10.45,155.22-10.71,221.82-9.69,1.83,0,4.25.24,6.07.34h0S793.43,140.24,822,148.5Z" transform="translate(-337.98 -50.71)"/><path class="cls-2" d="M698.83,661.29c-4-.67-8.48-4.37-12.11-6.25,0,0,.35-4.53,1.17-6.25,4.61-9.74,17.08-18.54,25.39-25.39,13.44-11.08,33.58-22.94,48.44-32,16.29-10,39.62-20.59,55.47-31.25,9.63-6.48,22-15.87,30.47-23.83,10.22-9.62,23.78-23,30.86-35.15,5.83-10,11.09-24.87,13-36.27,2.11-12.47,1.19-29.63-.55-42.16-2.75-19.78-11.51-45.2-18.07-64.06C868,344.6,859,326.81,854,312.79s-11-33.09-14.34-47.65c-3.16-13.84-6.73-32.55-7.4-46.72a93.71,93.71,0,0,1,.79-17.71c.74-4.48,1.6-10.82,4.18-14.56,1.84-2.67,5.63-5.19,8.52-6.66a7.33,7.33,0,0,1,.86-.3c6.35,1.26,15.29,1.49,21.17,4.21,13.76,6.34,28.39,21.46,38.28,32.93,10.36,12,21.25,30.47,28.15,44.75,6.62,13.71,13.08,33.11,16.89,47.85a280.87,280.87,0,0,1,7.11,41.73,307.31,307.31,0,0,1,0,43.15c-1.22,17-3.78,39.71-8.36,56.11-5.26,18.86-15.74,43.1-25.4,60.13-8,14-21,31.37-31.62,43.54-14.51,16.65-35.57,37.64-53.38,50.68-17.18,12.58-42.61,25.8-62.11,34.37-14.28,6.28-34.14,12.79-49.22,16.8-8.66,2.3-20.46,7.34-29.3,5.86m147.8-482.1Z" transform="translate(-337.98 -50.71)"/><path class="cls-3" d="M686.72,655h0c3.63,1.88,8.08,5.58,12.11,6.25,8.84,1.48,20.63-3.56,29.3-5.86,15.08-4,34.94-10.51,49.22-16.8,19.49-8.58,44.92-21.79,62.11-34.37,17.82-13,38.87-34,53.38-50.68,10.61-12.17,23.65-29.5,31.62-43.54,9.66-17,20.14-41.27,25.4-60.13,4.57-16.39,7.13-39.13,8.36-56.11a307.31,307.31,0,0,0,0-43.15,280.87,280.87,0,0,0-7.11-41.73c-3.8-14.74-10.27-34.14-16.89-47.85-6.9-14.28-17.79-32.74-28.15-44.75-9.89-11.47-24.52-26.59-38.28-32.93-5.88-2.71-14.82-2.94-21.17-4.21h0a7.33,7.33,0,0,0-.86.3c-2.89,1.47-6.68,4-8.52,6.66-2.58,3.74-3.44,10.08-4.18,14.56a93.71,93.71,0,0,0-.79,17.71c.67,14.18,4.24,32.89,7.4,46.72C843,279.7,849,298.73,854,312.79s14,31.81,18.9,45.87c6.56,18.86,15.32,44.28,18.07,64.06,1.74,12.53,2.65,29.69.55,42.16-1.93,11.4-7.18,26.29-13,36.27-7.08,12.12-20.64,25.53-30.86,35.15-8.45,8-20.84,17.35-30.47,23.83-15.85,10.66-39.17,21.28-55.47,31.25-14.86,9.09-35,20.95-48.44,32-8.31,6.85-20.78,15.65-25.39,25.39-.82,1.72-1.17,6.25-1.17,6.25" transform="translate(-337.98 -50.71)"/><path class="cls-4" d="M520.36,146.49c-12.31.76-29,2.48-40.57,6.61-20.69,7.37-46.52,23-62.61,37.92-13.4,12.44-27,33.31-35.72,49.38-6.91,12.74-13.34,31.13-17.64,45a302.76,302.76,0,0,0-9.72,41.6c-2.56,17.68-4.26,41.65-3.09,59.49s5.71,41.28,10.82,58.33a246.12,246.12,0,0,0,15.45,37.47c7.06,13.74,17.68,31.6,27.45,43.56,11.2,13.7,29.06,29.43,42.79,40.6,11.72,9.54,28.13,21.45,41.31,28.85,9.61,5.4,22.76,12.74,33.55,15,6.78,1.41,16.74,3,23.08.24,3.93-1.72,8.18-6.34,10-10.23,1.91-4.1,1.75-10.49,1.43-15-.56-7.81-3.95-17.88-6.66-25.23-3.22-8.71-9.57-19.46-13.57-27.84-5.14-10.78-12.41-25-16.78-36.08-4.45-11.3-10.1-26.6-12.5-38.51-2.05-10.17-3.55-24.09-3-34.46S507,398.75,510.75,389c4.56-11.76,14.17-26,22.35-35.62,11.65-13.68,30.68-28.78,45.45-39,13.34-9.24,33.09-18.4,47.35-26.14,10.19-5.53,24.49-11.69,34.09-18.18,4.8-3.25,11.16-7.86,15-12.25A72.46,72.46,0,0,0,687,237.43c1.83-5.11,3.41-12.43,3-17.84-1.1-13.58-7.79-31.88-16.6-42.28-9.17-10.83-28.46-16.94-40.66-24.19h0C632.64,153.11,554.07,144.4,520.36,146.49Z" transform="translate(-337.98 -50.71)"/><path class="cls-5" d="M453.58,195.39h0l8.18-3.62h0c1.53.12,3.68-.17,5.11.4s3.64,2,4.31,3.51c.6,1.36.07,3.5-.24,5a35.07,35.07,0,0,1-5.51,12.7c-1.85,2.38-4.92,5.51-7.83,6.31a11.44,11.44,0,0,1-6.55-.72,14.45,14.45,0,0,1-6.55-5.59,12.78,12.78,0,0,1-.8-7.83,9.73,9.73,0,0,1,1.92-3.28c2-2.45,7.95-6.85,8-6.85Z" transform="translate(-337.98 -50.71)"/><path class="cls-5" d="M440.71,224.72c1.71,2.62,2.5,6.91,2.94,10,.8,5.75.12,13.58-.53,19.36a155,155,0,0,1-4.27,21c-1.49,5.45-3.57,12.78-6.14,17.82-1.75,3.43-4.49,7.91-7.24,10.6a18.6,18.6,0,0,1-6.08,4.14,20.17,20.17,0,0,1-9.44.39,20.46,20.46,0,0,1-7.5-3.62,26.28,26.28,0,0,1-6.21-7.76,35.87,35.87,0,0,1-2.85-10.22,38.37,38.37,0,0,1-.13-11.51c1.41-7.17,6.48-15.83,10.22-22.12a141.29,141.29,0,0,1,11.5-15.6,120.48,120.48,0,0,1,9.92-10.86,32.16,32.16,0,0,1,6.21-4.92,11.51,11.51,0,0,1,2.92-.91,17.38,17.38,0,0,1,1.81-.1h0S439.64,223.08,440.71,224.72Z" transform="translate(-337.98 -50.71)"/><path class="cls-6" d="M716.59,277.74c1.38,10,.43,23.53.62,33.62,0,0-6.19-23.23-10.18-32.69a195.52,195.52,0,0,0-16.66-30.84c-6.21-9.11-16.46-19.78-23.75-28.07-4.63-5.26-10.66-12.43-15.73-17.27-2.28-2.18-5.32-5.16-8-6.79-4-2.41-9.9-5.09-14.55-5.6-7.72-.85-18,2.62-25.47,4.54-8.9,2.28-20.28,6.95-29,9.83-7.25,2.4-17.06,5.14-24.21,7.82-6.86,2.57-15.62,6.94-22.44,9.58-2,.76-4.63,1.65-6.61,2.36l68.48-49.1a36,36,0,0,0-2.47-5.5,25.05,25.05,0,0,0-6.6-6.46c-5.79-3.57-15.23-4.45-21.72-6.46s-14.92-4.81-21.31-6.87c0,0-5.21-.27-6.6-1.79-14.27-15.57,49.28-.25,70.39-.89,34.78-1.05,81-6,115.83-5.77,16.15.12,37.62,2.14,53.75,3.06-8.82,1.88-20.62,4.2-29.4,6.25s-20.9,4.16-29.37,7.48c-5.12,2-12.3,4.67-16.2,8.54A23.09,23.09,0,0,0,689.48,177c-.65,3.21.65,7.63,1.25,10.86,5.13,27.57,22,62.06,25.86,89.85m53.74-133.3Z" transform="translate(-337.98 -50.71)"/><path class="cls-7" d="M717.2,311.36h0c-.18-10.09.76-23.63-.62-33.62-3.83-27.79-20.72-62.27-25.86-89.85-.6-3.22-1.89-7.64-1.25-10.86a23.09,23.09,0,0,1,5.87-10.32c3.9-3.87,11.08-6.54,16.2-8.54,8.47-3.31,20.52-5.41,29.37-7.48s20.58-4.37,29.4-6.25h0c-16.12-.92-37.6-2.94-53.75-3.06-34.79-.26-81.05,4.72-115.83,5.77-21.11.64-84.66-14.68-70.39.89,1.39,1.51,6.6,1.79,6.6,1.79h0c6.39,2.06,14.89,4.89,21.31,6.87s15.93,2.89,21.72,6.46a25.05,25.05,0,0,1,6.6,6.46,36,36,0,0,1,2.47,5.5h0l-68.48,49.1h0c2-.71,4.65-1.6,6.61-2.36,6.83-2.65,15.59-7,22.44-9.58,7.15-2.68,17-5.42,24.21-7.82,8.72-2.88,20.1-7.56,29-9.83,7.52-1.92,17.76-5.39,25.47-4.54,4.65.51,10.54,3.19,14.55,5.6,2.7,1.62,5.74,4.61,8,6.79,5.07,4.84,11.1,12,15.73,17.27,7.28,8.28,17.54,19,23.75,28.07A195.52,195.52,0,0,1,707,278.67c4,9.47,10.18,32.69,10.18,32.69" transform="translate(-337.98 -50.71)"/><path class="cls-8" d="M720.87,326.77c-.44,1.27-1.2,2.89-1.72,4.12,0,0-.65-15.44-1.55-22-1.39-10.17-3.66-23.8-7-33.5s-10-22.12-15.46-30.92c-5.91-9.48-15.38-21.07-22.59-29.59-4.41-5.21-10.25-12.29-15.48-16.68s-12.78-9.86-19.13-12.39a51.55,51.55,0,0,0-13-2.67,62.86,62.86,0,0,0-13.48.31,76.07,76.07,0,0,0-12.7,3.61c-8.8,3.15-19.95,8.85-28.42,12.79s-20.29,8.82-28.41,13.66A216.24,216.24,0,0,0,519,230c-6.07,4.93-13.65,12.1-19.25,17.54-3.31,3.21-7.5,7.72-10.71,11,0,0,4.21-10.78,6.68-15.06a135.54,135.54,0,0,1,16.15-21.73c6.36-6.89,16-14.95,23.6-20.49a181.68,181.68,0,0,1,17.23-10.75c4.7-2.62,11.3-5.5,16.08-8,4.55-2.36,10.82-5.19,15-8.12,1.35-.95,3.55-2,4.2-3.56a7.06,7.06,0,0,0-.23-5c-.73-1.61-2.8-3.07-4.28-4-2.69-1.74-6.87-3-10-3.89-6.69-1.89-16-2.63-22.88-3.77-5.29-.88-12.3-2.29-17.62-3-8-1-18.65-1.73-26.66-2.29-7.46-.52-17.42-.94-24.88-1.34,0,0,21.29-6.24,30.53-8.47,8.41-2,19.67-4.64,28.23-5.82a244.25,244.25,0,0,1,30.07-2.1c9.42,0,21.94,1.43,31.33,2.24,5.46.47,12.73,1.27,18.18,1.82,0,0-1-12.17-2.38-17.2-1.46-5.42-4.09-12.57-7.14-17.29a55.24,55.24,0,0,0-11-11.8,80.72,80.72,0,0,0-17.29-9.74c-2.57-1.07-6.22-1.88-8.89-2.69,0,0-2.25-5.94-2.41-8.62a16.7,16.7,0,0,1,1-7.24,17.44,17.44,0,0,1,6.38-6.89c3.84-2.17,10.06-2.5,14.47-2.58,3.86-.07,9.2.21,12.75,1.72,4.09,1.74,8.49,6.07,11.54,9.3C622.38,68,628.13,77,631.94,84c6.38,11.65,11.75,28.68,16.71,41,1.17,2.89,2.7,6.76,3.86,9.65,0,0,20.46-3.23,29.28-4.27,9-1.07,21-2.49,30.07-2.74a351.91,351.91,0,0,1,37.71,1.47c10.11.93,23.54,2.85,33.49,4.85,14.09,2.82,32.88,7.11,46.37,12.09,8.43,3.11,19.6,7.85,27.06,12.86,1.27.85,2.72,2.3,3.89,3.29-8.71-2.51-20.2-6.32-29-8.38-11.26-2.63-26.45-5.6-38-6.71-14.24-1.38-33.42-1.89-47.68-.69-10.26.86-23.93,3-33.79,6-5.2,1.57-12.17,4-16.71,7-2.7,1.78-6.61,4.39-7.88,7.36a12.58,12.58,0,0,0-.13,7.89c1.07,3.16,5.08,5.89,7.1,8.54,4.66,6.11,10.77,14.39,14.54,21.09a182.24,182.24,0,0,1,10.73,24,169.92,169.92,0,0,1,6.15,21,154.18,154.18,0,0,1,2.84,21.43,170.48,170.48,0,0,1-.95,29.31,161,161,0,0,1-6.72,26.8m139.5-164.62Z" transform="translate(-337.98 -50.71)"/><path class="cls-9" d="M719.15,330.89h0c.51-1.24,1.28-2.86,1.72-4.12a161,161,0,0,0,6.72-26.8,170.48,170.48,0,0,0,.95-29.31,154.18,154.18,0,0,0-2.84-21.43,169.92,169.92,0,0,0-6.15-21,182.24,182.24,0,0,0-10.73-24c-3.77-6.7-9.88-15-14.54-21.09-2-2.65-6-5.38-7.1-8.54a12.58,12.58,0,0,1,.13-7.89c1.27-3,5.18-5.58,7.88-7.36,4.54-3,11.51-5.4,16.71-7,9.86-3,23.53-5.15,33.79-6,14.26-1.2,33.44-.68,47.68.69,11.51,1.11,26.7,4.08,38,6.71,8.83,2.06,20.32,5.87,29,8.38h0c-1.17-1-2.62-2.44-3.89-3.29-7.46-5-18.63-9.74-27.06-12.86-13.49-5-32.27-9.27-46.37-12.09-10-2-23.38-3.91-33.49-4.85a351.91,351.91,0,0,0-37.71-1.47c-9.05.25-21.07,1.68-30.07,2.74-8.82,1-29.27,4.27-29.28,4.27h0c-1.16-2.9-2.69-6.76-3.86-9.65-5-12.32-10.33-29.35-16.71-41-3.8-6.94-9.56-16-15-21.71-3.05-3.24-7.45-7.56-11.54-9.3-3.55-1.51-8.89-1.8-12.75-1.72-4.41.08-10.64.41-14.47,2.58a17.44,17.44,0,0,0-6.38,6.89,16.7,16.7,0,0,0-1,7.24c.16,2.68,2.41,8.62,2.41,8.62h0c2.67.81,6.32,1.62,8.89,2.69A80.72,80.72,0,0,1,599.36,89a55.24,55.24,0,0,1,11,11.8c3,4.71,5.67,11.87,7.14,17.29,1.36,5,2.38,17.2,2.38,17.2h0c-5.45-.55-12.72-1.35-18.18-1.82-9.39-.81-21.9-2.23-31.33-2.24a244.25,244.25,0,0,0-30.07,2.1c-8.57,1.18-19.83,3.79-28.23,5.82-9.24,2.23-30.53,8.47-30.53,8.47h0c7.46.4,17.43.82,24.88,1.34,8,.56,18.7,1.26,26.66,2.29,5.32.68,12.33,2.09,17.62,3,6.86,1.14,16.19,1.88,22.88,3.77,3.09.87,7.26,2.15,10,3.89,1.48,1,3.56,2.43,4.28,4a7.06,7.06,0,0,1,.23,5c-.65,1.52-2.84,2.61-4.2,3.56-4.2,2.93-10.47,5.76-15,8.12-4.78,2.48-11.38,5.36-16.08,8a181.68,181.68,0,0,0-17.23,10.75c-7.56,5.55-17.24,13.61-23.6,20.49a135.54,135.54,0,0,0-16.15,21.73c-2.47,4.28-6.67,15.06-6.68,15.06h0c3.21-3.31,7.4-7.81,10.71-11C505.39,242.09,513,234.92,519,230a216.24,216.24,0,0,1,22.82-16.46c8.12-4.84,19.84-9.67,28.41-13.66s19.62-9.64,28.42-12.79a76.07,76.07,0,0,1,12.7-3.61,62.86,62.86,0,0,1,13.48-.31,51.55,51.55,0,0,1,13,2.67c6.35,2.53,13.89,8,19.13,12.39s11.07,11.47,15.48,16.68c7.22,8.52,16.69,20.11,22.59,29.59,5.48,8.8,12,21.13,15.46,30.92s5.65,23.32,7,33.5c.9,6.55,1.54,22,1.55,22" transform="translate(-337.98 -50.71)"/><path class="cls-10" d="M650.66,129.66c2.58,7.23,5.7,17,8.14,24.27,0,0-6.39,7.35-10,9.27-3.39,1.8-8.61,2.6-12.43,3-3.28.3-7.67-.37-11-.53,0,0,8.57-3.06,11.17-5.79s4.46-7.62,5.16-11.27c1.38-7.16-.77-17-2-24.23a56.07,56.07,0,0,0-2.41-9.66,59.39,59.39,0,0,0-5.42-10c-2.56-3.89-6.91-8.38-9.69-12.11-2.47-3.31-5.63-7.82-7.85-11.31-1.56-2.45-3.51-5.8-4.89-8.36a37.8,37.8,0,0,1-2.92-5.91,23.14,23.14,0,0,1-.82-5.84,8.6,8.6,0,0,1,.36-3.48,5.76,5.76,0,0,1,1.08-1.16,9.11,9.11,0,0,1,2.64-.11c3.36,1,6.42,5.11,8.8,7.69a92.61,92.61,0,0,1,8.11,11.08,145.14,145.14,0,0,1,7.78,13.47c2.84,5.74,5.78,13.77,8.13,19.72C645.14,114.69,648.37,123.22,650.66,129.66Z" transform="translate(-337.98 -50.71)"/><path class="cls-11" d="M658.8,153.93h0c-2.44-7.28-5.56-17-8.14-24.27-2.29-6.44-5.53-15-8-21.34-2.35-6-5.3-14-8.13-19.72a145.14,145.14,0,0,0-7.78-13.47,92.61,92.61,0,0,0-8.11-11.08c-2.37-2.58-5.43-6.7-8.8-7.69a9.11,9.11,0,0,0-2.64.11,5.76,5.76,0,0,0-1.08,1.16,8.6,8.6,0,0,0-.36,3.48,23.14,23.14,0,0,0,.82,5.84,37.8,37.8,0,0,0,2.92,5.91c1.37,2.56,3.33,5.91,4.89,8.36,2.22,3.48,5.38,8,7.85,11.31,2.78,3.73,7.13,8.23,9.69,12.11a59.39,59.39,0,0,1,5.42,10,56.07,56.07,0,0,1,2.41,9.66c1.24,7.19,3.38,17.07,2,24.23-.7,3.65-2.6,8.58-5.16,11.27s-11.17,5.79-11.17,5.79h0c3.29.16,7.68.82,11,.53,3.82-.35,9-1.15,12.43-3,3.61-1.92,10-9.27,10-9.27" transform="translate(-337.98 -50.71)"/></g></svg>